HIERARCHY
ROOT Hips
{
	OFFSET 0.000000 0.000000 0.000000
	CHANNELS 6 Xposition Yposition Zposition Xrotation Yrotation Zrotation
	JOINT LeftUpLeg_virtual
	{
		OFFSET 0.000000 0.000000 0.000000
		CHANNELS 3 Xrotation Yrotation Zrotation
		JOINT LeftUpLeg
		{
			OFFSET 10.205400 -3.823500 0.155100
			CHANNELS 3 Xrotation Yrotation Zrotation
			JOINT LeftLeg
			{
				OFFSET 0.708757 -12.982077 0.567790
				CHANNELS 3 Xrotation Yrotation Zrotation
				JOINT LeftFoot
				{
					OFFSET -0.708756 -10.717838 -2.184338
					CHANNELS 3 Xrotation Yrotation Zrotation
					JOINT LeftToeBase
					{
						OFFSET 0.108149 -7.191104 7.560241
						CHANNELS 3 Xrotation Yrotation Zrotation
						JOINT LeftToe_End
						{
							OFFSET 0.070230 0.081724 4.490308
							CHANNELS 3 Xrotation Yrotation Zrotation
							End Site
							{
								OFFSET 0 0 0
							}
						}
					}
				}
			}
		}
	}
	JOINT RightUpLeg_virtual
	{
		OFFSET 0.000000 0.000000 0.000000
		CHANNELS 3 Xrotation Yrotation Zrotation
		JOINT RightUpLeg
		{
			OFFSET -10.205400 -3.823500 0.005500
			CHANNELS 3 Xrotation Yrotation Zrotation
			JOINT RightLeg
			{
				OFFSET -0.708756 -12.982134 0.610632
				CHANNELS 3 Xrotation Yrotation Zrotation
				JOINT RightFoot
				{
					OFFSET 0.708754 -10.717769 -1.945823
					CHANNELS 3 Xrotation Yrotation Zrotation
					JOINT RightToeBase
					{
						OFFSET -0.108140 -7.191069 7.372968
						CHANNELS 3 Xrotation Yrotation Zrotation
						JOINT RightToe_End
						{
							OFFSET -0.070227 0.081735 4.479403
							CHANNELS 3 Xrotation Yrotation Zrotation
							End Site
							{
								OFFSET 0 0 0
							}
						}
					}
				}
			}
		}
	}
	JOINT Spine_virtual
	{
		OFFSET 0.000000 0.000000 0.000000
		CHANNELS 3 Xrotation Yrotation Zrotation
		JOINT Spine
		{
			OFFSET 0.000000 6.876099 0.125700
			CHANNELS 3 Xrotation Yrotation Zrotation
			JOINT Spine1
			{
				OFFSET 0.000000 5.730043 0.104720
				CHANNELS 3 Xrotation Yrotation Zrotation
				JOINT Spine1_split
				{
					OFFSET 0.000000 5.730043 0.104720
					CHANNELS 3 Xrotation Yrotation Zrotation
					JOINT Spine2
					{
						OFFSET 0.000000 5.730043 0.104720
						CHANNELS 3 Xrotation Yrotation Zrotation
						JOINT Neck_virtual
						{
							OFFSET 0.000000 0.000000 0.000000
							CHANNELS 3 Xrotation Yrotation Zrotation
							JOINT Neck
							{
								OFFSET 0.000000 10.314075 0.188496
								CHANNELS 3 Xrotation Yrotation Zrotation
								JOINT Head
								{
									OFFSET 0.000000 7.643700 -2.377400
									CHANNELS 3 Xrotation Yrotation Zrotation
									JOINT HeadTop_End
									{
										OFFSET 0.000000 43.788605 -13.619600
										CHANNELS 3 Xrotation Yrotation Zrotation
										End Site
										{
											OFFSET 0 0 0
										}
									}
								}
							}
						}
						JOINT LeftShoulder_virtual
						{
							OFFSET 0.000000 0.000000 0.000000
							CHANNELS 3 Xrotation Yrotation Zrotation
							JOINT LeftShoulder
							{
								OFFSET 2.196100 4.412489 0.087492
								CHANNELS 3 Xrotation Yrotation Zrotation
								JOINT LeftShoulder_split
								{
									OFFSET 2.196100 4.412489 0.087492
									CHANNELS 3 Xrotation Yrotation Zrotation
									JOINT LeftArm
									{
										OFFSET 8.771219 -2.981674 -0.026999
										CHANNELS 3 Xrotation Yrotation Zrotation
										JOINT LeftForeArm
										{
											OFFSET 8.512804 0.000000 -0.000000
											CHANNELS 3 Xrotation Yrotation Zrotation
											JOINT LeftHand
											{
												OFFSET 18.484802 0.000000 -0.000000
												CHANNELS 3 Xrotation Yrotation Zrotation
												End Site
												{
													OFFSET 0 0 0
												}
											}
										}
									}
								}
							}
						}
						JOINT RightShoulder_virtual
						{
							OFFSET 0.000000 0.000000 0.000000
							CHANNELS 3 Xrotation Yrotation Zrotation
							JOINT RightShoulder
							{
								OFFSET -2.196100 4.412496 0.070690
								CHANNELS 3 Xrotation Yrotation Zrotation
								JOINT RightShoulder_split
								{
									OFFSET -2.196100 4.412496 0.070690
									CHANNELS 3 Xrotation Yrotation Zrotation
									JOINT RightArm
									{
										OFFSET -8.771282 -2.981682 -0.094208
										CHANNELS 3 Xrotation Yrotation Zrotation
										JOINT RightForeArm
										{
											OFFSET -8.494598 0.000000 0.000000
											CHANNELS 3 Xrotation Yrotation Zrotation
											JOINT RightHand
											{
												OFFSET -18.483803 0.000000 0.000001
												CHANNELS 3 Xrotation Yrotation Zrotation
												End Site
												{
													OFFSET 0 0 0
												}
											}
										}
									}
								}
							}
						}
					}
				}
			}
		}
	}
}
MOTION
Frames: 7
Frame Time: 0.03333333
0.123354 32.935207 -2.638529 0.000000 0.000000 0.000000 4.132941 5.807100 -0.411431 -16.513108 8.368863 8.644893 32.166629 0.264083 -0.014187 -22.537640 2.515815 -6.886547 -0.522167 0.417940 0.651953 0.000000 0.000000 0.000000 4.462402 5.157581 -0.683739 -2.142223 -5.772476 -5.854586 21.262357 -6.708579 6.622716 -20.645387 -17.979672 -0.271331 -0.888189 0.037546 -0.626653 0.000000 0.000000 0.000000 5.214465 2.684162 -1.371868 18.569893 -2.337379 -0.124902 0.233678 0.000533 1.055977 0.975754 -0.102595 0.037421 0.000000 0.000000 0.000000 1.075790 -0.476376 0.486649 17.831641 3.050437 -0.646396 11.357227 2.533879 1.908801 0.000000 0.000000 0.000000 0.906030 -0.008597 -0.055784 12.397496 -36.773462 -0.315935 1.658345 -1.282649 -3.059631 12.495139 17.250637 -47.242400 -1.315327 -37.013779 0.006067 0.000000 0.000000 0.000000 0.275624 -0.170945 0.782480 0.860378 -1.764755 7.264651 1.639807 5.304549 -1.583785 -0.518509 16.893646 36.745257 0.654611 14.985693 1.223759 0.000000 0.000000 0.000000 
0.146174 32.965832 -2.579420 0.000000 0.000000 0.000000 3.899480 5.858477 -0.314728 -16.093293 8.594922 8.527290 31.785767 0.246858 -0.076879 -22.428147 2.481067 -6.706804 -0.501006 0.426988 0.705149 0.000000 0.000000 0.000000 4.283160 5.195804 -0.594642 -1.792841 -5.727965 -5.969924 21.007737 -6.532873 6.555692 -20.335036 -17.992509 -0.197698 -0.874850 0.023251 -0.600333 0.000000 0.000000 0.000000 4.951912 2.868742 -1.237655 17.982993 -2.366254 -0.110464 0.272335 -0.030023 0.973375 0.984857 -0.157906 0.020347 0.000000 0.000000 0.000000 1.102466 -0.519407 0.389451 17.803218 2.305299 -0.366565 11.377566 0.011892 3.060194 0.000000 0.000000 0.000000 0.980068 -0.069225 -0.133279 12.117541 -36.522186 -0.282827 1.693700 -0.980742 -2.907878 14.045070 17.921981 -47.498874 -1.359893 -36.612437 -0.066301 0.000000 0.000000 0.000000 0.316496 -0.218861 0.740032 0.579154 -1.953522 6.874779 1.863783 5.409216 -1.450731 0.705863 16.114711 36.790028 0.708530 14.962948 1.120996 0.000000 0.000000 0.000000 
0.161943 32.984436 -2.553785 0.000000 0.000000 0.000000 3.692623 5.880460 -0.273639 -15.812453 8.737170 8.408531 31.495307 0.188772 -0.072177 -22.313342 2.442575 -6.537589 -0.466027 0.439286 0.712080 0.000000 0.000000 0.000000 4.118815 5.197459 -0.551681 -1.478650 -5.684039 -6.008085 20.822925 -6.368542 6.521544 -20.098142 -18.015855 -0.120405 -0.923381 0.010600 -0.582995 0.000000 0.000000 0.000000 4.730652 3.036727 -1.155920 17.473632 -2.317919 -0.093591 0.346879 -0.057962 0.961194 1.024745 -0.194344 0.006410 0.000000 0.000000 0.000000 1.118846 -0.546023 0.350447 17.668919 1.640442 -0.123415 11.323549 -2.087384 3.997331 0.000000 0.000000 0.000000 1.081054 -0.126268 -0.134283 11.836773 -36.058498 -0.247708 1.793225 -0.637241 -2.766691 15.075932 18.143621 -48.038469 -1.474568 -36.393997 -0.183538 0.000000 0.000000 0.000000 0.380032 -0.259577 0.749465 0.394912 -2.148143 6.633537 2.106492 5.640021 -1.363895 1.008187 15.527168 37.414919 0.688522 14.787368 1.060342 0.000000 0.000000 0.000000 
0.171549 32.987411 -2.546610 0.000000 0.000000 0.000000 3.493281 5.907218 -0.266650 -15.650605 8.729670 8.280084 31.334715 0.070093 0.009722 -22.165776 2.395344 -6.427080 -0.420436 0.452958 0.672707 0.000000 0.000000 0.000000 3.933394 5.191870 -0.535233 -1.193066 -5.629424 -5.978859 20.757039 -6.244783 6.515043 -19.996062 -18.069720 -0.079714 -0.991910 0.002552 -0.579687 0.000000 0.000000 0.000000 4.523067 3.197670 -1.108931 17.053579 -2.198389 -0.076120 0.442885 -0.076306 1.008665 1.049024 -0.177877 -0.055851 0.000000 0.000000 0.000000 1.112027 -0.553328 0.359319 17.479422 1.081665 0.044541 11.259154 -3.762986 4.753809 0.000000 0.000000 0.000000 1.186050 -0.174503 -0.080098 11.563859 -35.481685 -0.249352 1.818847 -0.230663 -2.660282 15.592147 17.933247 -48.708913 -1.684552 -36.086072 -0.344998 0.000000 0.000000 0.000000 0.447566 -0.283116 0.797762 0.321634 -2.316149 6.623039 2.325326 5.866626 -1.272486 0.515619 15.182430 38.558464 0.631310 14.391888 1.010493 0.000000 0.000000 0.000000 
0.175467 32.976627 -2.548311 0.000000 0.000000 0.000000 3.282284 5.964741 -0.258568 -15.531594 8.551196 8.113379 31.272981 -0.094588 0.173371 -21.999279 2.350201 -6.360925 -0.358264 0.464572 0.596938 0.000000 0.000000 0.000000 3.705772 5.220232 -0.518121 -0.920595 -5.583281 -5.923600 20.836008 -6.173154 6.525345 -20.052563 -18.172632 -0.092254 -1.039363 0.000792 -0.585486 0.000000 0.000000 0.000000 4.310568 3.386454 -1.063930 16.737334 -2.014915 -0.063858 0.544741 -0.081680 1.091705 1.030468 -0.169865 -0.161748 0.000000 0.000000 0.000000 1.069211 -0.542297 0.403898 17.279279 0.659498 0.113139 11.233180 -5.052183 5.354787 0.000000 0.000000 0.000000 1.268465 -0.205825 0.001608 11.302753 -34.882264 -0.330423 1.760299 0.177335 -2.615647 15.664195 17.224359 -49.418372 -1.958088 -35.634248 -0.520936 0.000000 0.000000 0.000000 0.504624 -0.273865 0.865182 0.361337 -2.380181 6.928397 2.529828 6.043630 -1.228531 -0.547433 15.077356 40.165979 0.588879 13.767175 0.942900 0.000000 0.000000 0.000000 
0.173203 32.957195 -2.553583 0.000000 0.000000 0.000000 3.046281 6.060403 -0.212893 -15.379573 8.236121 7.888746 31.217281 -0.281570 0.394301 -21.862787 2.309916 -6.308936 -0.286111 0.471131 0.501762 0.000000 0.000000 0.000000 3.412155 5.304956 -0.467126 -0.638361 -5.586213 -5.887465 21.010053 -6.160326 6.541349 -20.227166 -18.328630 -0.140596 -1.054487 0.003344 -0.594346 0.000000 0.000000 0.000000 4.055273 3.625494 -0.980191 16.514475 -1.779603 -0.056544 0.639694 -0.076352 1.187871 1.001335 -0.149488 -0.219096 0.000000 0.000000 0.000000 0.996656 -0.516882 0.472405 17.110903 0.392698 0.079029 11.274017 -5.970145 5.804268 0.000000 0.000000 0.000000 1.315786 -0.219192 0.092062 11.053278 -34.308412 -0.534071 1.630274 0.536218 -2.625016 15.363117 16.036979 -50.143858 -2.208479 -35.151995 -0.670040 0.000000 0.000000 0.000000 0.548048 -0.237456 0.941299 0.501176 -2.251927 7.542843 2.658350 6.053577 -1.194559 -2.016850 15.112873 42.123706 0.586134 13.170463 0.826588 0.000000 0.000000 0.000000 
0.167295 32.936031 -2.562529 0.000000 0.000000 0.000000 2.755061 6.216274 -0.108439 -15.130240 7.868680 7.605790 31.076459 -0.479836 0.622015 -21.753259 2.263241 -6.277190 -0.266260 0.473696 0.418907 0.000000 0.000000 0.000000 3.044259 5.435192 -0.362174 -0.332344 -5.678295 -5.907638 21.213212 -6.194376 6.550579 -20.436139 -18.538243 -0.183735 -1.058282 0.006371 -0.601800 0.000000 0.000000 0.000000 3.733955 3.918996 -0.838643 16.365075 -1.508861 -0.053305 0.716524 -0.062338 1.283307 1.018299 -0.183465 -0.284929 0.000000 0.000000 0.000000 0.901427 -0.482051 0.558412 16.995847 0.291941 -0.025391 11.395636 -6.548545 6.103591 0.000000 0.000000 0.000000 1.323256 -0.218260 0.180891 10.821029 -33.812551 -0.865680 1.453248 0.797083 -2.625215 14.769606 14.443482 -50.913606 -2.352224 -34.769737 -0.750006 0.000000 0.000000 0.000000 0.574501 -0.182572 1.023753 0.715055 -1.871324 8.408585 2.676579 5.918612 -1.223374 -3.765327 15.218619 44.359391 0.643818 12.727271 0.650686 0.000000 0.000000 0.000000 
